<svg xmlns="http://www.w3.org/2000/svg" xmlns:xlink="http://www.w3.org/1999/xlink" width="500" zoomAndPan="magnify" viewBox="0 0 375 112.499997" height="150" preserveAspectRatio="xMidYMid meet" version="1.0"><defs><g/><clipPath id="7dba0408c0"><path d="M 28 26 L 94.429688 26 L 94.429688 92.703125 L 28 92.703125 Z M 28 26 " clip-rule="nonzero"/></clipPath><clipPath id="5224448f11"><path d="M 21.253906 21.769531 L 51 21.769531 L 51 51 L 21.253906 51 Z M 21.253906 21.769531 " clip-rule="nonzero"/></clipPath><clipPath id="2f28af5a65"><path d="M 61 26 L 94.429688 26 L 94.429688 92.703125 L 61 92.703125 Z M 61 26 " clip-rule="nonzero"/></clipPath><clipPath id="6104e6f370"><path d="M 44 42 L 79.488281 42 L 79.488281 77.605469 L 44 77.605469 Z M 44 42 " clip-rule="nonzero"/></clipPath><clipPath id="995be6c6fa"><path d="M 39.492188 40.273438 L 58 40.273438 L 58 59 L 39.492188 59 Z M 39.492188 40.273438 " clip-rule="nonzero"/></clipPath></defs><g clip-path="url(#7dba0408c0)"><path fill="#5aff7a" d="M 61.328125 26.226562 L 69.691406 26.226562 C 83.402344 26.226562 94.558594 37.382812 94.558594 51.09375 L 94.558594 92.683594 L 52.96875 92.683594 C 39.257812 92.683594 28.101562 81.53125 28.101562 67.820312 L 28.101562 59.457031 L 41.964844 59.457031 L 41.964844 67.820312 C 41.964844 73.890625 46.898438 78.824219 52.96875 78.824219 L 80.695312 78.824219 L 80.695312 51.09375 C 80.695312 45.027344 75.757812 40.089844 69.691406 40.089844 L 61.328125 40.089844 Z M 61.328125 26.226562 " fill-opacity="1" fill-rule="nonzero"/></g><g clip-path="url(#5224448f11)"><path fill="#14edb9" d="M 31.101562 31.289062 L 21.253906 31.289062 L 21.253906 40.984375 L 31.101562 40.984375 L 31.101562 50.828125 L 40.796875 50.828125 L 40.796875 40.984375 L 50.644531 40.984375 L 50.644531 31.289062 L 40.796875 31.289062 L 40.796875 21.441406 L 31.101562 21.441406 Z M 31.101562 31.289062 " fill-opacity="1" fill-rule="nonzero"/></g><g clip-path="url(#2f28af5a65)"><path fill="#d1ff5d" d="M 61.328125 26.226562 L 69.691406 26.226562 C 83.402344 26.226562 94.558594 37.382812 94.558594 51.09375 L 94.558594 92.683594 L 93.867188 92.683594 L 80.410156 78.824219 L 80.695312 78.824219 L 80.695312 51.09375 C 80.695312 45.027344 75.757812 40.089844 69.691406 40.089844 L 61.328125 40.089844 Z M 61.328125 26.226562 " fill-opacity="1" fill-rule="nonzero"/></g><g clip-path="url(#6104e6f370)"><path fill="#14edb9" d="M 44.878906 55.476562 C 44.628906 56.585938 44.5 57.742188 44.5 58.929688 C 44.5 67.632812 51.554688 74.6875 60.257812 74.6875 C 68.960938 74.6875 76.015625 67.632812 76.015625 58.929688 C 76.015625 50.226562 68.960938 43.167969 60.257812 43.167969 C 57.246094 43.167969 54.429688 44.015625 52.035156 45.480469 C 54.882812 43.546875 58.320312 42.414062 62.023438 42.414062 C 71.839844 42.414062 79.796875 50.371094 79.796875 60.1875 C 79.796875 70.007812 71.839844 77.964844 62.023438 77.964844 C 52.207031 77.964844 44.246094 70.007812 44.246094 60.1875 C 44.246094 58.558594 44.464844 56.976562 44.878906 55.476562 " fill-opacity="1" fill-rule="nonzero"/></g><path fill="#5aff7a" d="M 60.714844 59.527344 C 61.546875 61.523438 60.941406 63.363281 60.359375 64.476562 C 60.402344 63.191406 59.195312 60.695312 56.570312 58.613281 C 56.570312 58.613281 59.023438 61.144531 59.65625 63.574219 C 60.105469 65.304688 61.535156 66.625 63.308594 66.851562 C 64.085938 66.953125 64.890625 66.925781 65.703125 66.753906 C 69.542969 65.945312 72.03125 62.152344 71.25 58.308594 C 70.480469 54.519531 66.847656 52.039062 63.058594 52.664062 C 63.148438 52.640625 63.234375 52.621094 63.324219 52.605469 C 67.511719 51.765625 71.589844 54.480469 72.429688 58.667969 C 73.269531 62.859375 70.554688 66.933594 66.363281 67.773438 C 64.207031 68.207031 62.078125 67.695312 60.40625 66.523438 C 59.609375 65.964844 58.757812 65.492188 57.882812 65.070312 C 56.507812 64.417969 54.804688 62.902344 54.582031 59.398438 C 54.359375 55.960938 52.417969 54.808594 52.417969 54.808594 C 52.417969 54.808594 58.789062 54.898438 60.714844 59.527344 " fill-opacity="1" fill-rule="nonzero"/><path fill="#5aff7a" d="M 65.84375 59.992188 C 65.746094 64.289062 62.386719 64.566406 62.386719 64.566406 C 61.609375 62.605469 64.394531 59.488281 64.394531 59.488281 C 62.570312 61.058594 61.78125 62.882812 61.847656 63.804688 C 61.398438 63.023438 60.910156 61.722656 61.445312 60.265625 C 62.691406 56.886719 67.261719 56.636719 67.261719 56.636719 C 67.261719 56.636719 65.902344 57.519531 65.84375 59.992188 " fill-opacity="1" fill-rule="nonzero"/><g clip-path="url(#995be6c6fa)"><path fill="#14edb9" d="M 45.074219 45.761719 L 45.074219 40.667969 C 45.074219 40.449219 45.253906 40.269531 45.472656 40.269531 L 51.425781 40.269531 C 51.644531 40.269531 51.824219 40.449219 51.824219 40.667969 L 51.824219 45.761719 C 51.824219 45.984375 52.003906 46.160156 52.222656 46.160156 L 57.316406 46.160156 C 57.535156 46.160156 57.714844 46.339844 57.714844 46.558594 L 57.714844 52.511719 C 57.714844 52.734375 57.535156 52.910156 57.316406 52.910156 L 52.222656 52.910156 C 52.003906 52.910156 51.824219 53.089844 51.824219 53.308594 L 51.824219 58.402344 C 51.824219 58.625 51.644531 58.800781 51.425781 58.800781 L 45.472656 58.800781 C 45.253906 58.800781 45.074219 58.625 45.074219 58.402344 L 45.074219 53.308594 C 45.074219 53.089844 44.894531 52.910156 44.675781 52.910156 L 39.582031 52.910156 C 39.363281 52.910156 39.183594 52.734375 39.183594 52.511719 L 39.183594 46.558594 C 39.183594 46.339844 39.363281 46.160156 39.582031 46.160156 L 44.675781 46.160156 C 44.894531 46.160156 45.074219 45.984375 45.074219 45.761719 " fill-opacity="1" fill-rule="nonzero"/></g><path fill="#14edb9" d="M 53.480469 67.691406 L 53.480469 66.238281 C 53.480469 66.175781 53.53125 66.125 53.59375 66.125 L 55.289062 66.125 C 55.355469 66.125 55.40625 66.175781 55.40625 66.238281 L 55.40625 67.691406 C 55.40625 67.753906 55.457031 67.804688 55.519531 67.804688 L 56.96875 67.804688 C 57.03125 67.804688 57.082031 67.855469 57.082031 67.917969 L 57.082031 69.613281 C 57.082031 69.675781 57.03125 69.726562 56.96875 69.726562 L 55.519531 69.726562 C 55.457031 69.726562 55.40625 69.777344 55.40625 69.84375 L 55.40625 71.292969 C 55.40625 71.355469 55.355469 71.40625 55.289062 71.40625 L 53.59375 71.40625 C 53.53125 71.40625 53.480469 71.355469 53.480469 71.292969 L 53.480469 69.84375 C 53.480469 69.777344 53.429688 69.726562 53.367188 69.726562 L 51.914062 69.726562 C 51.851562 69.726562 51.800781 69.675781 51.800781 69.613281 L 51.800781 67.917969 C 51.800781 67.855469 51.851562 67.804688 51.914062 67.804688 L 53.367188 67.804688 C 53.429688 67.804688 53.480469 67.753906 53.480469 67.691406 " fill-opacity="1" fill-rule="nonzero"/><path fill="#14edb9" d="M 64.179688 47.101562 L 64.179688 45.648438 C 64.179688 45.585938 64.230469 45.535156 64.292969 45.535156 L 65.988281 45.535156 C 66.050781 45.535156 66.101562 45.585938 66.101562 45.648438 L 66.101562 47.101562 C 66.101562 47.164062 66.152344 47.214844 66.214844 47.214844 L 67.667969 47.214844 C 67.730469 47.214844 67.78125 47.265625 67.78125 47.328125 L 67.78125 49.023438 C 67.78125 49.089844 67.730469 49.140625 67.667969 49.140625 L 66.214844 49.140625 C 66.152344 49.140625 66.101562 49.191406 66.101562 49.253906 L 66.101562 50.703125 C 66.101562 50.765625 66.050781 50.816406 65.988281 50.816406 L 64.292969 50.816406 C 64.230469 50.816406 64.179688 50.765625 64.179688 50.703125 L 64.179688 49.253906 C 64.179688 49.191406 64.128906 49.140625 64.0625 49.140625 L 62.613281 49.140625 C 62.550781 49.140625 62.5 49.089844 62.5 49.023438 L 62.5 47.328125 C 62.5 47.265625 62.550781 47.214844 62.613281 47.214844 L 64.0625 47.214844 C 64.128906 47.214844 64.179688 47.164062 64.179688 47.101562 " fill-opacity="1" fill-rule="nonzero"/><g fill="#ffffff" fill-opacity="1"><g transform="translate(101.19207, 83.340369)"><g><path d="M 34.796875 -35.703125 C 33.929688 -36.179688 32.878906 -36.640625 31.640625 -37.078125 C 30.410156 -37.515625 28.773438 -37.734375 26.734375 -37.734375 C 24.085938 -37.734375 21.832031 -37.222656 19.96875 -36.203125 C 18.101562 -35.179688 16.609375 -33.820312 15.484375 -32.125 C 14.359375 -30.4375 13.597656 -28.582031 13.203125 -26.5625 C 12.816406 -24.550781 12.816406 -22.535156 13.203125 -20.515625 C 13.597656 -18.503906 14.359375 -16.648438 15.484375 -14.953125 C 16.609375 -13.265625 18.101562 -11.910156 19.96875 -10.890625 C 21.832031 -9.867188 24.085938 -9.359375 26.734375 -9.359375 C 28.773438 -9.359375 30.5625 -9.597656 32.09375 -10.078125 C 33.632812 -10.554688 34.835938 -11.015625 35.703125 -11.453125 L 36.953125 -1.828125 C 35.515625 -1.253906 33.863281 -0.785156 32 -0.421875 C 30.132812 -0.0546875 28.378906 0.125 26.734375 0.125 C 22.785156 0.125 19.335938 -0.535156 16.390625 -1.859375 C 13.441406 -3.179688 10.976562 -4.96875 9 -7.21875 C 7.03125 -9.476562 5.554688 -12.003906 4.578125 -14.796875 C 3.609375 -17.597656 3.125 -20.492188 3.125 -23.484375 C 3.125 -26.472656 3.609375 -29.363281 4.578125 -32.15625 C 5.554688 -34.957031 7.03125 -37.484375 9 -39.734375 C 10.976562 -41.992188 13.441406 -43.785156 16.390625 -45.109375 C 19.335938 -46.429688 22.785156 -47.09375 26.734375 -47.09375 C 30.117188 -47.09375 33.175781 -46.484375 35.90625 -45.265625 Z M 34.796875 -35.703125 "/></g></g></g><g fill="#ffffff" fill-opacity="1"><g transform="translate(140.022689, 83.340369)"><g><path d="M 38.578125 -16.203125 C 38.578125 -13.035156 37.96875 -10.320312 36.75 -8.0625 C 35.539062 -5.8125 33.9375 -4.015625 31.9375 -2.671875 C 29.945312 -1.328125 27.757812 -0.425781 25.375 0.03125 C 22.988281 0.488281 20.59375 0.488281 18.1875 0.03125 C 15.78125 -0.425781 13.578125 -1.328125 11.578125 -2.671875 C 9.585938 -4.015625 7.984375 -5.8125 6.765625 -8.0625 C 5.546875 -10.320312 4.9375 -13.035156 4.9375 -16.203125 L 4.9375 -46.515625 L 14.25 -46.515625 L 14.25 -16.265625 C 14.25 -14.304688 14.753906 -12.742188 15.765625 -11.578125 C 16.785156 -10.410156 18.046875 -9.628906 19.546875 -9.234375 C 21.046875 -8.847656 22.539062 -8.847656 24.03125 -9.234375 C 25.53125 -9.628906 26.789062 -10.410156 27.8125 -11.578125 C 28.832031 -12.742188 29.34375 -14.304688 29.34375 -16.265625 L 29.34375 -46.515625 L 38.578125 -46.515625 Z M 38.578125 -16.203125 "/></g></g></g><g fill="#ffffff" fill-opacity="1"><g transform="translate(183.341268, 83.340369)"><g><path d="M 28.359375 0 L 19 -17.75 L 14.5 -17.75 L 14.5 0 L 5.203125 0 L 5.203125 -46.515625 L 23.546875 -46.515625 C 26.316406 -46.515625 28.664062 -45.9375 30.59375 -44.78125 C 32.53125 -43.632812 34.039062 -42.140625 35.125 -40.296875 C 36.207031 -38.453125 36.878906 -36.457031 37.140625 -34.3125 C 37.398438 -32.164062 37.238281 -30.0625 36.65625 -28 C 36.070312 -25.9375 35.070312 -24.113281 33.65625 -22.53125 C 32.25 -20.957031 30.394531 -19.84375 28.09375 -19.1875 L 38.890625 0 Z M 14.5 -26.796875 L 22.703125 -26.796875 C 23.960938 -26.796875 24.96875 -27.140625 25.71875 -27.828125 C 26.476562 -28.523438 26.988281 -29.394531 27.25 -30.4375 C 27.507812 -31.476562 27.507812 -32.519531 27.25 -33.5625 C 26.988281 -34.601562 26.476562 -35.46875 25.71875 -36.15625 C 24.96875 -36.851562 23.960938 -37.203125 22.703125 -37.203125 L 14.5 -37.203125 Z M 14.5 -26.796875 "/></g></g></g><g fill="#ffffff" fill-opacity="1"><g transform="translate(222.887347, 83.340369)"><g><path d="M 1.046875 0 L 20.625 -48.203125 L 21.59375 -48.203125 L 41.171875 0 L 30.703125 0 L 28.8125 -5.015625 L 13.40625 -5.015625 L 11.578125 0 Z M 16.78125 -13.71875 L 25.375 -13.71875 L 21.140625 -25.828125 Z M 16.78125 -13.71875 "/></g></g></g><g fill="#ffffff" fill-opacity="1"><g transform="translate(265.035149, 83.340369)"><g><path d="M 3.0625 -2.984375 L 4.234375 -12.75 C 6.003906 -11.488281 7.765625 -10.585938 9.515625 -10.046875 C 11.273438 -9.503906 12.867188 -9.1875 14.296875 -9.09375 C 15.734375 -9.007812 16.800781 -8.992188 17.5 -9.046875 C 18.882812 -9.128906 20.0625 -9.613281 21.03125 -10.5 C 22.007812 -11.394531 22.4375 -12.46875 22.3125 -13.71875 C 22.226562 -15.0625 21.726562 -16.082031 20.8125 -16.78125 C 19.90625 -17.476562 18.800781 -18.039062 17.5 -18.46875 C 15.070312 -19.382812 12.804688 -20.4375 10.703125 -21.625 C 8.597656 -22.820312 6.90625 -24.304688 5.625 -26.078125 C 4.34375 -27.859375 3.703125 -30.050781 3.703125 -32.65625 C 3.703125 -35.257812 4.253906 -37.609375 5.359375 -39.703125 C 6.472656 -41.804688 8.023438 -43.488281 10.015625 -44.75 C 12.015625 -46.007812 14.289062 -46.703125 16.84375 -46.828125 C 18.0625 -46.921875 19.546875 -46.878906 21.296875 -46.703125 C 23.054688 -46.523438 25.429688 -45.914062 28.421875 -44.875 L 27.25 -35.90625 C 24.695312 -36.945312 22.660156 -37.539062 21.140625 -37.6875 C 19.617188 -37.84375 18.488281 -37.898438 17.75 -37.859375 C 16.101562 -37.773438 14.898438 -37.210938 14.140625 -36.171875 C 13.390625 -35.128906 13.054688 -33.957031 13.140625 -32.65625 C 13.265625 -31.351562 13.828125 -30.363281 14.828125 -29.6875 C 15.828125 -29.019531 17 -28.445312 18.34375 -27.96875 C 20.769531 -27.101562 23 -26.03125 25.03125 -24.75 C 27.070312 -23.46875 28.710938 -21.925781 29.953125 -20.125 C 31.191406 -18.332031 31.8125 -16.195312 31.8125 -13.71875 C 31.8125 -11.164062 31.242188 -8.847656 30.109375 -6.765625 C 28.984375 -4.679688 27.367188 -3.007812 25.265625 -1.75 C 23.160156 -0.5 20.65625 0.210938 17.75 0.390625 C 16.882812 0.429688 15.703125 0.394531 14.203125 0.28125 C 12.710938 0.175781 11.015625 -0.117188 9.109375 -0.609375 C 7.203125 -1.109375 5.1875 -1.898438 3.0625 -2.984375 Z M 3.0625 -2.984375 "/></g></g></g><g fill="#ffffff" fill-opacity="1"><g transform="translate(299.117639, 83.340369)"><g><path d="M 16.59375 0 L 16.59375 -20.9375 L 0.390625 -46.515625 L 11.703125 -46.515625 L 21.203125 -30.5 L 30.703125 -46.515625 L 42.078125 -46.515625 L 25.828125 -20.9375 L 25.828125 0 Z M 16.59375 0 "/></g></g></g><g fill="#ffffff" fill-opacity="1"><g transform="translate(341.00526, 83.340369)"><g><path d="M 3.0625 -2.984375 L 4.234375 -12.75 C 6.003906 -11.488281 7.765625 -10.585938 9.515625 -10.046875 C 11.273438 -9.503906 12.867188 -9.1875 14.296875 -9.09375 C 15.734375 -9.007812 16.800781 -8.992188 17.5 -9.046875 C 18.882812 -9.128906 20.0625 -9.613281 21.03125 -10.5 C 22.007812 -11.394531 22.4375 -12.46875 22.3125 -13.71875 C 22.226562 -15.0625 21.726562 -16.082031 20.8125 -16.78125 C 19.90625 -17.476562 18.800781 -18.039062 17.5 -18.46875 C 15.070312 -19.382812 12.804688 -20.4375 10.703125 -21.625 C 8.597656 -22.820312 6.90625 -24.304688 5.625 -26.078125 C 4.34375 -27.859375 3.703125 -30.050781 3.703125 -32.65625 C 3.703125 -35.257812 4.253906 -37.609375 5.359375 -39.703125 C 6.472656 -41.804688 8.023438 -43.488281 10.015625 -44.75 C 12.015625 -46.007812 14.289062 -46.703125 16.84375 -46.828125 C 18.0625 -46.921875 19.546875 -46.878906 21.296875 -46.703125 C 23.054688 -46.523438 25.429688 -45.914062 28.421875 -44.875 L 27.25 -35.90625 C 24.695312 -36.945312 22.660156 -37.539062 21.140625 -37.6875 C 19.617188 -37.84375 18.488281 -37.898438 17.75 -37.859375 C 16.101562 -37.773438 14.898438 -37.210938 14.140625 -36.171875 C 13.390625 -35.128906 13.054688 -33.957031 13.140625 -32.65625 C 13.265625 -31.351562 13.828125 -30.363281 14.828125 -29.6875 C 15.828125 -29.019531 17 -28.445312 18.34375 -27.96875 C 20.769531 -27.101562 23 -26.03125 25.03125 -24.75 C 27.070312 -23.46875 28.710938 -21.925781 29.953125 -20.125 C 31.191406 -18.332031 31.8125 -16.195312 31.8125 -13.71875 C 31.8125 -11.164062 31.242188 -8.847656 30.109375 -6.765625 C 28.984375 -4.679688 27.367188 -3.007812 25.265625 -1.75 C 23.160156 -0.5 20.65625 0.210938 17.75 0.390625 C 16.882812 0.429688 15.703125 0.394531 14.203125 0.28125 C 12.710938 0.175781 11.015625 -0.117188 9.109375 -0.609375 C 7.203125 -1.109375 5.1875 -1.898438 3.0625 -2.984375 Z M 3.0625 -2.984375 "/></g></g></g><path stroke-linecap="butt" transform="matrix(0.746681, 0, 0, 0.746681, 108.611211, 89.636269)" fill="none" stroke-linejoin="miter" d="M -0.00245948 1.999029 L 351.145065 1.999029 " stroke="#5aff7a" stroke-width="4" stroke-opacity="1" stroke-miterlimit="4"/></svg>