<svg xmlns="http://www.w3.org/2000/svg" xmlns:xlink="http://www.w3.org/1999/xlink" width="500" zoomAndPan="magnify" viewBox="0 0 375 374.999991" height="500" preserveAspectRatio="xMidYMid meet" version="1.0"><defs><clipPath id="78130097a5"><path d="M 71 65 L 337.355469 65 L 337.355469 331.785156 L 71 331.785156 Z M 71 65 " clip-rule="nonzero"/></clipPath><clipPath id="581a876500"><path d="M 44.105469 46.785156 L 162 46.785156 L 162 165 L 44.105469 165 Z M 44.105469 46.785156 " clip-rule="nonzero"/></clipPath><clipPath id="3886c84132"><path d="M 204 65 L 337.355469 65 L 337.355469 331.785156 L 204 331.785156 Z M 204 65 " clip-rule="nonzero"/></clipPath><clipPath id="b7873f9b3c"><path d="M 136 130 L 278.480469 130 L 278.480469 272.664062 L 136 272.664062 Z M 136 130 " clip-rule="nonzero"/></clipPath><clipPath id="3a680e23aa"><path d="M 115.789062 121.914062 L 191 121.914062 L 191 197 L 115.789062 197 Z M 115.789062 121.914062 " clip-rule="nonzero"/></clipPath></defs><g clip-path="url(#78130097a5)"><path fill="#5aff7a" d="M 204.503906 65.707031 L 237.972656 65.707031 C 292.851562 65.707031 337.496094 110.355469 337.496094 165.230469 L 337.496094 331.695312 L 171.035156 331.695312 C 116.15625 331.695312 71.507812 287.050781 71.507812 232.171875 L 71.507812 198.703125 L 126.992188 198.703125 L 126.992188 232.171875 C 126.992188 256.46875 146.738281 276.214844 171.035156 276.214844 L 282.015625 276.214844 L 282.015625 165.230469 C 282.015625 140.949219 262.253906 121.191406 237.972656 121.191406 L 204.503906 121.191406 Z M 204.503906 65.707031 " fill-opacity="1" fill-rule="nonzero"/></g><g clip-path="url(#581a876500)"><path fill="#14edb9" d="M 83.519531 85.957031 L 44.105469 85.957031 L 44.105469 124.761719 L 83.519531 124.761719 L 83.519531 164.175781 L 122.324219 164.175781 L 122.324219 124.761719 L 161.738281 124.761719 L 161.738281 85.957031 L 122.324219 85.957031 L 122.324219 46.542969 L 83.519531 46.542969 Z M 83.519531 85.957031 " fill-opacity="1" fill-rule="nonzero"/></g><g clip-path="url(#3886c84132)"><path fill="#d1ff5d" d="M 204.503906 65.707031 L 237.972656 65.707031 C 292.851562 65.707031 337.496094 110.355469 337.496094 165.230469 L 337.496094 331.695312 L 334.738281 331.695312 L 280.871094 276.214844 L 282.015625 276.214844 L 282.015625 165.230469 C 282.015625 140.949219 262.253906 121.191406 237.972656 121.191406 L 204.503906 121.191406 Z M 204.503906 65.707031 " fill-opacity="1" fill-rule="nonzero"/></g><g clip-path="url(#b7873f9b3c)"><path fill="#14edb9" d="M 138.636719 182.78125 C 137.644531 187.226562 137.117188 191.851562 137.117188 196.597656 C 137.117188 231.4375 165.363281 259.683594 200.203125 259.683594 C 235.046875 259.683594 263.289062 231.4375 263.289062 196.597656 C 263.289062 161.753906 235.046875 133.511719 200.203125 133.511719 C 188.140625 133.511719 176.867188 136.898438 167.285156 142.769531 C 178.679688 135.015625 192.445312 130.484375 207.269531 130.484375 C 246.570312 130.484375 278.429688 162.34375 278.429688 201.644531 C 278.429688 240.945312 246.570312 272.804688 207.269531 272.804688 C 167.96875 272.804688 136.109375 240.945312 136.109375 201.644531 C 136.109375 195.113281 136.988281 188.789062 138.636719 182.78125 " fill-opacity="1" fill-rule="nonzero"/></g><path fill="#5aff7a" d="M 202.035156 199 C 205.363281 206.988281 202.9375 214.355469 200.605469 218.804688 C 200.777344 213.660156 195.957031 203.671875 185.445312 195.339844 C 185.445312 195.339844 195.265625 205.472656 197.792969 215.199219 C 199.59375 222.128906 205.3125 227.402344 212.414062 228.316406 C 215.523438 228.714844 218.757812 228.609375 222.003906 227.925781 C 237.375 224.683594 247.335938 209.511719 244.207031 194.117188 C 241.121094 178.949219 226.589844 169.011719 211.421875 171.511719 C 211.773438 171.429688 212.125 171.351562 212.480469 171.28125 C 229.246094 167.921875 245.566406 178.789062 248.925781 195.558594 C 252.289062 212.328125 241.417969 228.644531 224.652344 232.007812 C 216.011719 233.738281 207.488281 231.691406 200.800781 227.007812 C 197.609375 224.773438 194.207031 222.867188 190.691406 221.191406 C 185.199219 218.570312 178.371094 212.503906 177.476562 198.488281 C 176.59375 184.714844 168.8125 180.113281 168.8125 180.113281 C 168.8125 180.113281 194.324219 180.46875 202.035156 199 " fill-opacity="1" fill-rule="nonzero"/><path fill="#5aff7a" d="M 222.570312 200.859375 C 222.175781 218.054688 208.730469 219.171875 208.730469 219.171875 C 205.617188 211.320312 216.761719 198.839844 216.761719 198.839844 C 209.464844 205.125 206.300781 212.429688 206.574219 216.121094 C 204.773438 212.992188 202.816406 207.78125 204.964844 201.953125 C 209.953125 188.429688 228.246094 187.421875 228.246094 187.421875 C 228.246094 187.421875 222.796875 190.957031 222.570312 200.859375 " fill-opacity="1" fill-rule="nonzero"/><g clip-path="url(#3a680e23aa)"><path fill="#14edb9" d="M 139.421875 143.894531 L 139.421875 123.503906 C 139.421875 122.625 140.136719 121.910156 141.015625 121.910156 L 164.84375 121.910156 C 165.726562 121.910156 166.441406 122.625 166.441406 123.503906 L 166.441406 143.894531 C 166.441406 144.777344 167.15625 145.492188 168.039062 145.492188 L 188.425781 145.492188 C 189.308594 145.492188 190.023438 146.207031 190.023438 147.085938 L 190.023438 170.914062 C 190.023438 171.796875 189.308594 172.511719 188.425781 172.511719 L 168.039062 172.511719 C 167.15625 172.511719 166.441406 173.226562 166.441406 174.105469 L 166.441406 194.496094 C 166.441406 195.378906 165.726562 196.09375 164.84375 196.09375 L 141.015625 196.09375 C 140.136719 196.09375 139.421875 195.378906 139.421875 194.496094 L 139.421875 174.105469 C 139.421875 173.226562 138.707031 172.511719 137.824219 172.511719 L 117.4375 172.511719 C 116.554688 172.511719 115.839844 171.796875 115.839844 170.914062 L 115.839844 147.085938 C 115.839844 146.207031 116.554688 145.492188 117.4375 145.492188 L 137.824219 145.492188 C 138.707031 145.492188 139.421875 144.777344 139.421875 143.894531 " fill-opacity="1" fill-rule="nonzero"/></g><path fill="#14edb9" d="M 173.074219 231.675781 L 173.074219 225.863281 C 173.074219 225.609375 173.277344 225.410156 173.527344 225.410156 L 180.320312 225.410156 C 180.574219 225.410156 180.777344 225.609375 180.777344 225.863281 L 180.777344 231.675781 C 180.777344 231.925781 180.980469 232.128906 181.230469 232.128906 L 187.042969 232.128906 C 187.292969 232.128906 187.5 232.332031 187.5 232.585938 L 187.5 239.375 C 187.5 239.628906 187.292969 239.832031 187.042969 239.832031 L 181.230469 239.832031 C 180.980469 239.832031 180.777344 240.035156 180.777344 240.285156 L 180.777344 246.097656 C 180.777344 246.351562 180.574219 246.554688 180.320312 246.554688 L 173.527344 246.554688 C 173.277344 246.554688 173.074219 246.351562 173.074219 246.097656 L 173.074219 240.285156 C 173.074219 240.035156 172.871094 239.832031 172.621094 239.832031 L 166.804688 239.832031 C 166.554688 239.832031 166.351562 239.628906 166.351562 239.375 L 166.351562 232.585938 C 166.351562 232.332031 166.554688 232.128906 166.804688 232.128906 L 172.621094 232.128906 C 172.871094 232.128906 173.074219 231.925781 173.074219 231.675781 " fill-opacity="1" fill-rule="nonzero"/><path fill="#14edb9" d="M 215.898438 149.25 L 215.898438 143.4375 C 215.898438 143.1875 216.101562 142.984375 216.351562 142.984375 L 223.144531 142.984375 C 223.394531 142.984375 223.597656 143.1875 223.597656 143.4375 L 223.597656 149.25 C 223.597656 149.503906 223.804688 149.707031 224.054688 149.707031 L 229.867188 149.707031 C 230.117188 149.707031 230.320312 149.910156 230.320312 150.160156 L 230.320312 156.953125 C 230.320312 157.207031 230.117188 157.410156 229.867188 157.410156 L 224.054688 157.410156 C 223.804688 157.410156 223.597656 157.613281 223.597656 157.863281 L 223.597656 163.675781 C 223.597656 163.925781 223.394531 164.128906 223.144531 164.128906 L 216.351562 164.128906 C 216.101562 164.128906 215.898438 163.925781 215.898438 163.675781 L 215.898438 157.863281 C 215.898438 157.613281 215.695312 157.410156 215.441406 157.410156 L 209.628906 157.410156 C 209.378906 157.410156 209.175781 157.207031 209.175781 156.953125 L 209.175781 150.160156 C 209.175781 149.910156 209.378906 149.707031 209.628906 149.707031 L 215.441406 149.707031 C 215.695312 149.707031 215.898438 149.503906 215.898438 149.25 " fill-opacity="1" fill-rule="nonzero"/></svg>